<?xml version="1.0" encoding="utf-8"?>
<!-- Generator: Adobe Illustrator 15.0.2, SVG Export Plug-In . SVG Version: 6.00 Build 0)  -->
<!DOCTYPE svg PUBLIC "-//W3C//DTD SVG 1.1//EN" "http://www.w3.org/Graphics/SVG/1.1/DTD/svg11.dtd">
<svg version="1.1"
	 id="Calque_1" xmlns:cc="http://creativecommons.org/ns#" xmlns:rdf="http://www.w3.org/1999/02/22-rdf-syntax-ns#" xmlns:dc="http://purl.org/dc/elements/1.1/"
	 xmlns="http://www.w3.org/2000/svg" xmlns:xlink="http://www.w3.org/1999/xlink" x="0px" y="0px" width="32px" height="32px"
	 viewBox="0 0 32 32" enable-background="new 0 0 32 32" xml:space="preserve">
<g>
	<path fill="#FFFFFF" d="M4.531,2.995c0,0,3.33,1.474,4.569,2.022C9.017,6.374,8.793,9.993,8.793,9.993
		c-0.047,0.769,0.537,1.425,1.306,1.472c0.766,0.051,1.425-0.536,1.472-1.303l0.365-5.94c0.035-0.58-0.294-1.119-0.823-1.355
		L5.657,0.451C4.953,0.14,4.132,0.456,3.82,1.158C3.508,1.861,3.826,2.683,4.531,2.995z"/>
	<path fill="#FFFFFF" d="M26.224,29.193c0,0-3.158-1.813-4.334-2.486c0.224-1.342,0.822-4.919,0.822-4.919
		c0.13-0.762-0.385-1.475-1.144-1.602c-0.757-0.13-1.475,0.385-1.6,1.144l-0.981,5.87c-0.098,0.571,0.174,1.144,0.677,1.433
		l5.174,2.974c0.666,0.382,1.518,0.154,1.901-0.514C27.122,30.429,26.892,29.576,26.224,29.193z"/>
	<path fill="none" stroke="#FFFFFF" stroke-width="3" stroke-linecap="round" d="M13.695,28.661
		C7.512,27.758,2.764,22.433,2.764,15.998c0-5.254,3.167-9.769,7.695-11.74"/>
	<path fill="none" stroke="#FFFFFF" stroke-width="3" stroke-linecap="round" d="M17.429,3.335
		C23.611,4.238,28.36,9.563,28.36,15.998c0,5.168-3.063,9.622-7.475,11.643"/>
</g>
</svg>
